<svg width="30" height="30" viewBox="0 0 30 30" fill="none" xmlns="http://www.w3.org/2000/svg">
<path fill-rule="evenodd" clip-rule="evenodd" d="M12.8087 0.0686919C9.59517 0.577161 6.87758 1.93729 4.50043 4.22704C2.38724 6.26263 1.13849 8.42452 0.296361 11.5051C-0.130399 13.0669 -0.0885657 17.0769 0.372223 18.7556C2.53396 26.6318 10.3557 31.3875 18.272 29.6387C20.9582 29.0452 23.2534 27.7952 25.3522 25.7823C31.4456 19.9389 31.5626 10.392 25.6143 4.39996C23.7688 2.54087 21.253 1.08392 18.7402 0.419054C17.5099 0.0936401 13.9724 -0.115299 12.8087 0.0686919ZM20.067 15.0914V23.9791H18.5061H16.9452V16.1645V8.34968L15.5793 8.45368C12.8978 8.65763 11.7159 9.70092 11.7486 11.8347C11.7589 12.499 11.8748 13.121 12.0686 13.5546C12.4167 14.3323 13.6149 15.5108 15.033 16.4701C15.5697 16.8331 16.0045 17.18 15.9995 17.2411C15.9945 17.3022 14.9937 18.8258 13.7752 20.6267L11.5599 23.9011L9.95997 23.9456C8.97985 23.9728 8.36001 23.9303 8.36001 23.8359C8.36001 23.7511 9.23116 22.3969 10.296 20.8264L12.2319 17.9713L11.0056 16.8379C10.0873 15.9892 9.64996 15.4422 9.26472 14.6606C8.78161 13.6804 8.75024 13.5165 8.75024 11.9762C8.75024 10.532 8.7991 10.2315 9.15921 9.4647C9.69164 8.33035 10.5202 7.51938 11.7191 6.95899C13.0839 6.32095 13.6697 6.24002 17.0622 6.22085L20.067 6.20369V15.0914Z" fill="#2D2D2D"/>
</svg>
