<svg width="22" height="20" viewBox="0 0 22 20" fill="none" xmlns="http://www.w3.org/2000/svg">
<path d="M2.45068 8.18726V17.1075C2.45068 17.3801 2.55777 17.6416 2.74838 17.8344C2.93899 18.0271 3.19751 18.1354 3.46707 18.1354H7.53262C7.80219 18.1354 8.06071 18.0271 8.25132 17.8344C8.44193 17.6416 8.54901 17.3801 8.54901 17.1075V13.1983C8.54901 12.9257 8.65609 12.6642 8.8467 12.4715C9.03731 12.2787 9.29584 12.1704 9.5654 12.1704H11.5982C11.8677 12.1704 12.1263 12.2787 12.3169 12.4715C12.5075 12.6642 12.6146 12.9257 12.6146 13.1983V17.1075C12.6146 17.3801 12.7216 17.6416 12.9123 17.8344C13.1029 18.0271 13.3614 18.1354 13.631 18.1354H17.6965C17.9661 18.1354 18.2246 18.0271 18.4152 17.8344C18.6058 17.6416 18.7129 17.3801 18.7129 17.1075V8.18726" stroke="#B6B6B6" stroke-width="1.82114"/>
<path d="M20.1606 9.34372L10.7829 1.08136C10.6416 0.956853 10.4297 0.956853 10.2884 1.08136L0.910645 9.34372" stroke="#B6B6B6" stroke-width="1.82114" stroke-linecap="round"/>
</svg>
