<svg width="14" height="24" viewBox="0 0 14 24" fill="none" xmlns="http://www.w3.org/2000/svg">
<path fill-rule="evenodd" clip-rule="evenodd" d="M1.25105 6.25105C1.58579 5.91632 2.1285 5.91632 2.46323 6.25105L7 10.7878L11.5368 6.25105C11.8715 5.91632 12.4142 5.91632 12.7489 6.25105C13.0837 6.58579 13.0837 7.1285 12.7489 7.46323L8.21218 12L12.7489 16.5368C13.0837 16.8715 13.0837 17.4142 12.7489 17.7489C12.4142 18.0837 11.8715 18.0837 11.5368 17.7489L7 13.2122L2.46323 17.7489C2.1285 18.0837 1.58579 18.0837 1.25105 17.7489C0.916316 17.4142 0.916316 16.8715 1.25105 16.5368L5.78782 12L1.25105 7.46323C0.916316 7.1285 0.916316 6.58579 1.25105 6.25105Z" fill="#F4F3F1"/>
</svg>
