<svg width="369" height="55" viewBox="0 0 369 55" fill="none" xmlns="http://www.w3.org/2000/svg">
<path d="M25.5732 17.0449C26.1522 16.9718 27.6371 16.9918 28.1943 17.0801C29.1553 17.2324 30.1947 17.5601 31.082 17.9912C33.6127 19.2207 35.5867 21.6579 36.2598 24.3828C36.4556 25.1757 36.5001 25.6114 36.5 26.75C36.4999 27.7292 36.4891 27.9135 36.4082 28.3682C36.1754 29.6754 35.8104 30.6598 35.1348 31.8008C34.645 32.6278 33.6349 33.7771 32.8691 34.3789C31.4891 35.4634 29.9299 36.141 28.1543 36.4258C27.5288 36.5261 25.9542 36.5249 25.3457 36.4238C23.8332 36.1726 22.5632 35.6888 21.3896 34.918C20.7423 34.4927 20.4101 34.2207 19.8057 33.6172C18.5693 32.3828 17.6719 30.8221 17.2607 29.1934C17.0453 28.3398 17 27.9168 17 26.75C17 25.6111 17.0447 25.1711 17.2402 24.3828C17.489 23.3803 17.9964 22.2352 18.5732 21.376C19.4911 20.0086 20.7282 18.8856 22.1611 18.1172C23.1218 17.602 24.4374 17.1884 25.5732 17.0449ZM27.8779 18.626C26.5302 18.4412 25.1746 18.5894 23.9121 19.0605C22.6122 19.5457 21.5509 20.2628 20.6367 21.2725C20.1245 21.8382 19.7314 22.419 19.3594 23.1602C18.7524 24.3698 18.4467 25.9398 18.5547 27.29C18.678 28.831 19.0934 30.0532 19.918 31.3037C21.0123 32.9633 22.7508 34.1861 24.75 34.7021C25.4246 34.8763 25.9626 34.9404 26.75 34.9404C27.5374 34.9404 28.0754 34.8763 28.75 34.7021C30.7608 34.1831 32.4854 32.9706 33.583 31.3037C34.5122 29.8925 34.9541 28.4242 34.9541 26.75C34.954 25.0486 34.5216 23.6265 33.5615 22.1719C32.314 20.2819 30.1612 18.9391 27.8779 18.626ZM26.0439 24.4912L27.0596 24.501L27.2109 24.6221C27.2944 24.6883 27.4031 24.8205 27.4521 24.916L27.541 25.0898V30.4795H27.998C28.3753 30.4795 28.4808 30.4928 28.6084 30.5576C29.1589 30.8377 29.1618 31.637 28.6133 31.9258L28.4385 32.0176H25.0615L24.8867 31.9258C24.3383 31.637 24.3411 30.8377 24.8916 30.5576C25.0192 30.4927 25.1247 30.4795 25.502 30.4795H25.959V26.0205H25.5C24.9768 26.0205 24.8396 25.9771 24.6543 25.7529C24.3464 25.3803 24.4513 24.8107 24.8721 24.5703C25.0255 24.4826 25.0517 24.4812 26.0439 24.4912ZM26.5254 20.7695C26.8743 20.6814 27.3437 20.8606 27.5518 21.1621C27.652 21.3074 27.6763 21.3871 27.6914 21.6221C27.7137 21.9684 27.6589 22.1505 27.4707 22.3584C27.3036 22.5429 27.1785 22.6127 26.9111 22.6699C26.5118 22.7553 26.0685 22.5234 25.877 22.1289C25.804 21.9786 25.7933 21.9023 25.8086 21.6396C25.8237 21.3794 25.8452 21.3026 25.9395 21.167C26.0576 20.9969 26.3137 20.8231 26.5254 20.7695Z" fill="black"/>
<path d="M25.5732 17.0449C26.1522 16.9718 27.6371 16.9918 28.1943 17.0801C29.1553 17.2324 30.1947 17.5601 31.082 17.9912C33.6127 19.2207 35.5867 21.6579 36.2598 24.3828C36.4556 25.1757 36.5001 25.6114 36.5 26.75C36.4999 27.7292 36.4891 27.9135 36.4082 28.3682C36.1754 29.6754 35.8104 30.6598 35.1348 31.8008C34.645 32.6278 33.6349 33.7771 32.8691 34.3789C31.4891 35.4634 29.9299 36.141 28.1543 36.4258C27.5288 36.5261 25.9542 36.5249 25.3457 36.4238C23.8332 36.1726 22.5632 35.6888 21.3896 34.918C20.7423 34.4927 20.4101 34.2207 19.8057 33.6172C18.5693 32.3828 17.6719 30.8221 17.2607 29.1934C17.0453 28.3398 17 27.9168 17 26.75C17 25.6111 17.0447 25.1711 17.2402 24.3828C17.489 23.3803 17.9964 22.2352 18.5732 21.376C19.4911 20.0086 20.7282 18.8856 22.1611 18.1172C23.1218 17.602 24.4374 17.1884 25.5732 17.0449ZM27.8779 18.626C26.5302 18.4412 25.1746 18.5894 23.9121 19.0605C22.6122 19.5457 21.5509 20.2628 20.6367 21.2725C20.1245 21.8382 19.7314 22.419 19.3594 23.1602C18.7524 24.3698 18.4467 25.9398 18.5547 27.29C18.678 28.831 19.0934 30.0532 19.918 31.3037C21.0123 32.9633 22.7508 34.1861 24.75 34.7021C25.4246 34.8763 25.9626 34.9404 26.75 34.9404C27.5374 34.9404 28.0754 34.8763 28.75 34.7021C30.7608 34.1831 32.4854 32.9706 33.583 31.3037C34.5122 29.8925 34.9541 28.4242 34.9541 26.75C34.954 25.0486 34.5216 23.6265 33.5615 22.1719C32.314 20.2819 30.1612 18.9391 27.8779 18.626ZM26.0439 24.4912L27.0596 24.501L27.2109 24.6221C27.2944 24.6883 27.4031 24.8205 27.4521 24.916L27.541 25.0898V30.4795H27.998C28.3753 30.4795 28.4808 30.4928 28.6084 30.5576C29.1589 30.8377 29.1618 31.637 28.6133 31.9258L28.4385 32.0176H25.0615L24.8867 31.9258C24.3383 31.637 24.3411 30.8377 24.8916 30.5576C25.0192 30.4927 25.1247 30.4795 25.502 30.4795H25.959V26.0205H25.5C24.9768 26.0205 24.8396 25.9771 24.6543 25.7529C24.3464 25.3803 24.4513 24.8107 24.8721 24.5703C25.0255 24.4826 25.0517 24.4812 26.0439 24.4912ZM26.5254 20.7695C26.8743 20.6814 27.3437 20.8606 27.5518 21.1621C27.652 21.3074 27.6763 21.3871 27.6914 21.6221C27.7137 21.9684 27.6589 22.1505 27.4707 22.3584C27.3036 22.5429 27.1785 22.6127 26.9111 22.6699C26.5118 22.7553 26.0685 22.5234 25.877 22.1289C25.804 21.9786 25.7933 21.9023 25.8086 21.6396C25.8237 21.3794 25.8452 21.3026 25.9395 21.167C26.0576 20.9969 26.3137 20.8231 26.5254 20.7695Z" stroke="black"/>
<path fill-rule="evenodd" clip-rule="evenodd" d="M347.185 32.3191C346.938 32.0779 346.938 31.6868 347.185 31.4456L351.475 27.25L347.185 23.0544C346.938 22.8132 346.938 22.4221 347.185 22.1809C347.432 21.9397 347.832 21.9397 348.078 22.1809L352.815 26.8133C353.062 27.0545 353.062 27.4455 352.815 27.6867L348.078 32.3191C347.832 32.5603 347.432 32.5603 347.185 32.3191Z" fill="black" stroke="black" stroke-width="0.2" stroke-linecap="round" stroke-linejoin="round"/>
<path d="M58.5256 26.5455C58.5256 27.696 58.3178 28.6903 57.9023 29.5284C57.4869 30.3665 56.9169 31.0128 56.1925 31.4673C55.468 31.9219 54.6406 32.1491 53.7102 32.1491C52.7798 32.1491 51.9524 31.9219 51.228 31.4673C50.5036 31.0128 49.9336 30.3665 49.5181 29.5284C49.1026 28.6903 48.8949 27.696 48.8949 26.5455C48.8949 25.3949 49.1026 24.4006 49.5181 23.5625C49.9336 22.7244 50.5036 22.0781 51.228 21.6236C51.9524 21.169 52.7798 20.9418 53.7102 20.9418C54.6406 20.9418 55.468 21.169 56.1925 21.6236C56.9169 22.0781 57.4869 22.7244 57.9023 23.5625C58.3178 24.4006 58.5256 25.3949 58.5256 26.5455ZM57.2472 26.5455C57.2472 25.6009 57.0891 24.8036 56.7731 24.1538C56.4606 23.5039 56.0362 23.0121 55.5 22.6783C54.9673 22.3445 54.3707 22.1776 53.7102 22.1776C53.0497 22.1776 52.4513 22.3445 51.9151 22.6783C51.3825 23.0121 50.9581 23.5039 50.642 24.1538C50.3295 24.8036 50.1733 25.6009 50.1733 26.5455C50.1733 27.4901 50.3295 28.2873 50.642 28.9371C50.9581 29.587 51.3825 30.0788 51.9151 30.4126C52.4513 30.7464 53.0497 30.9134 53.7102 30.9134C54.3707 30.9134 54.9673 30.7464 55.5 30.4126C56.0362 30.0788 56.4606 29.587 56.7731 28.9371C57.0891 28.2873 57.2472 27.4901 57.2472 26.5455ZM68.119 32.1705C67.3519 32.1705 66.6914 31.9893 66.1374 31.6271C65.5835 31.2649 65.1573 30.766 64.859 30.1303C64.5607 29.4947 64.4116 28.7685 64.4116 27.9517C64.4116 27.1207 64.5643 26.3874 64.8697 25.7518C65.1786 25.1126 65.6083 24.6136 66.1587 24.255C66.7127 23.8928 67.359 23.7116 68.0977 23.7116C68.6729 23.7116 69.1914 23.8182 69.6531 24.0312C70.1147 24.2443 70.4929 24.5426 70.7876 24.9261C71.0824 25.3097 71.2653 25.7571 71.3363 26.2685H70.0792C69.9833 25.8956 69.7702 25.5653 69.44 25.2777C69.1133 24.9865 68.6729 24.8409 68.119 24.8409C67.6289 24.8409 67.1992 24.9687 66.8299 25.2244C66.4641 25.4766 66.1783 25.8335 65.9723 26.2951C65.7699 26.7532 65.6687 27.2912 65.6687 27.9091C65.6687 28.5412 65.7681 29.0916 65.967 29.5604C66.1694 30.0291 66.4535 30.3931 66.8192 30.6523C67.1886 30.9116 67.6218 31.0412 68.119 31.0412C68.4457 31.0412 68.7422 30.9844 69.0085 30.8707C69.2749 30.7571 69.5004 30.5938 69.685 30.3807C69.8697 30.1676 70.0011 29.9119 70.0792 29.6136H71.3363C71.2653 30.0966 71.0895 30.5316 70.8089 30.9187C70.532 31.3022 70.1644 31.6076 69.7063 31.8349C69.2518 32.0586 68.7227 32.1705 68.119 32.1705ZM76.6044 32.1705C75.8161 32.1705 75.136 31.9964 74.5643 31.6484C73.9961 31.2969 73.5575 30.8068 73.2486 30.1783C72.9432 29.5462 72.7905 28.8111 72.7905 27.973C72.7905 27.1349 72.9432 26.3963 73.2486 25.7571C73.5575 25.1143 73.9872 24.6136 74.5376 24.255C75.0916 23.8928 75.7379 23.7116 76.4766 23.7116C76.9027 23.7116 77.3235 23.7827 77.739 23.9247C78.1545 24.0668 78.5327 24.2976 78.8736 24.6172C79.2145 24.9332 79.4862 25.3523 79.6886 25.8743C79.891 26.3963 79.9922 27.0391 79.9922 27.8026V28.3352H73.6854V27.2486H78.7138C78.7138 26.7869 78.6214 26.375 78.4368 26.0128C78.2557 25.6506 77.9964 25.3647 77.6591 25.1552C77.3253 24.9457 76.9311 24.8409 76.4766 24.8409C75.9759 24.8409 75.5426 24.9652 75.1768 25.2138C74.8146 25.4588 74.5359 25.7784 74.3406 26.1726C74.1452 26.5668 74.0476 26.9893 74.0476 27.4403V28.1648C74.0476 28.7827 74.1541 29.3065 74.3672 29.7362C74.5838 30.1623 74.8839 30.4872 75.2674 30.7109C75.6509 30.9311 76.0966 31.0412 76.6044 31.0412C76.9347 31.0412 77.233 30.995 77.4993 30.9027C77.7692 30.8068 78.0018 30.6648 78.1971 30.4766C78.3924 30.2848 78.5433 30.0469 78.6499 29.7628L79.8643 30.1037C79.7365 30.5156 79.5217 30.8778 79.2198 31.1903C78.918 31.4993 78.5451 31.7408 78.1012 31.9148C77.6573 32.0852 77.1584 32.1705 76.6044 32.1705ZM81.9045 35.0682V23.8182H83.119V25.1179H83.2681C83.3604 24.9759 83.4883 24.7947 83.6516 24.5746C83.8185 24.3509 84.0565 24.152 84.3654 23.978C84.6779 23.8004 85.1005 23.7116 85.6332 23.7116C86.3221 23.7116 86.9293 23.8839 87.4549 24.2283C87.9805 24.5728 88.3906 25.0611 88.6854 25.6932C88.9801 26.3253 89.1275 27.071 89.1275 27.9304C89.1275 28.7969 88.9801 29.5479 88.6854 30.1836C88.3906 30.8157 87.9822 31.3058 87.4602 31.6538C86.9382 31.9982 86.3363 32.1705 85.6545 32.1705C85.1289 32.1705 84.7081 32.0835 84.392 31.9094C84.076 31.7319 83.8327 31.5312 83.6623 31.3075C83.4918 31.0803 83.3604 30.892 83.2681 30.7429H83.1616V35.0682H81.9045ZM83.1403 27.9091C83.1403 28.527 83.2308 29.0721 83.4119 29.5444C83.593 30.0131 83.8576 30.3807 84.2056 30.647C84.5536 30.9098 84.9798 31.0412 85.484 31.0412C86.0096 31.0412 86.4482 30.9027 86.7997 30.6257C87.1548 30.3452 87.4212 29.9687 87.5987 29.4964C87.7798 29.0206 87.8704 28.4915 87.8704 27.9091C87.8704 27.3338 87.7816 26.8153 87.604 26.3537C87.43 25.8885 87.1655 25.521 86.8104 25.2511C86.4588 24.9776 86.0167 24.8409 85.484 24.8409C84.9727 24.8409 84.543 24.9705 84.195 25.2298C83.8469 25.4854 83.5842 25.8441 83.4066 26.3058C83.229 26.7638 83.1403 27.2983 83.1403 27.9091ZM91.0451 32V23.8182H94.3903C95.271 23.8182 95.9705 24.017 96.489 24.4148C97.0075 24.8125 97.2667 25.3381 97.2667 25.9915C97.2667 26.4886 97.1193 26.8739 96.8246 27.1474C96.5298 27.4173 96.1516 27.6001 95.69 27.696C95.9918 27.7386 96.2848 27.8452 96.5689 28.0156C96.8565 28.1861 97.0945 28.4205 97.2827 28.7188C97.4709 29.0135 97.565 29.3757 97.565 29.8054C97.565 30.2244 97.4585 30.5991 97.2454 30.9293C97.0323 31.2596 96.7269 31.5206 96.3292 31.7124C95.9315 31.9041 95.4556 32 94.9016 32H91.0451ZM92.2383 30.8494H94.9016C95.3349 30.8494 95.674 30.7464 95.919 30.5405C96.1641 30.3345 96.2866 30.054 96.2866 29.6989C96.2866 29.2763 96.1641 28.9442 95.919 28.7028C95.674 28.4577 95.3349 28.3352 94.9016 28.3352H92.2383V30.8494ZM92.2383 27.2486H94.3903C94.7276 27.2486 95.017 27.2024 95.2585 27.1101C95.5 27.0142 95.6847 26.8793 95.8125 26.7053C95.9439 26.5277 96.0096 26.3182 96.0096 26.0767C96.0096 25.7322 95.8658 25.4624 95.5781 25.267C95.2905 25.0682 94.8945 24.9688 94.3903 24.9688H92.2383V27.2486ZM100.725 30.1463L104.667 23.8182H106.116V32H104.859V25.6719L100.938 32H99.468V23.8182H100.725V30.1463ZM111.742 32.1705C110.975 32.1705 110.314 31.9893 109.76 31.6271C109.206 31.2649 108.78 30.766 108.482 30.1303C108.184 29.4947 108.035 28.7685 108.035 27.9517C108.035 27.1207 108.187 26.3874 108.493 25.7518C108.802 25.1126 109.231 24.6136 109.782 24.255C110.336 23.8928 110.982 23.7116 111.721 23.7116C112.296 23.7116 112.814 23.8182 113.276 24.0312C113.738 24.2443 114.116 24.5426 114.411 24.9261C114.705 25.3097 114.888 25.7571 114.959 26.2685H113.702C113.606 25.8956 113.393 25.5653 113.063 25.2777C112.736 24.9865 112.296 24.8409 111.742 24.8409C111.252 24.8409 110.822 24.9687 110.453 25.2244C110.087 25.4766 109.801 25.8335 109.595 26.2951C109.393 26.7532 109.292 27.2912 109.292 27.9091C109.292 28.5412 109.391 29.0916 109.59 29.5604C109.792 30.0291 110.077 30.3931 110.442 30.6523C110.812 30.9116 111.245 31.0412 111.742 31.0412C112.069 31.0412 112.365 30.9844 112.632 30.8707C112.898 30.7571 113.123 30.5938 113.308 30.3807C113.493 30.1676 113.624 29.9119 113.702 29.6136H114.959C114.888 30.0966 114.713 30.5316 114.432 30.9187C114.155 31.3022 113.787 31.6076 113.329 31.8349C112.875 32.0586 112.346 32.1705 111.742 32.1705ZM120.227 32.1705C119.439 32.1705 118.759 31.9964 118.187 31.6484C117.619 31.2969 117.181 30.8068 116.872 30.1783C116.566 29.5462 116.414 28.8111 116.414 27.973C116.414 27.1349 116.566 26.3963 116.872 25.7571C117.181 25.1143 117.61 24.6136 118.161 24.255C118.715 23.8928 119.361 23.7116 120.1 23.7116C120.526 23.7116 120.947 23.7827 121.362 23.9247C121.778 24.0668 122.156 24.2976 122.497 24.6172C122.838 24.9332 123.109 25.3523 123.312 25.8743C123.514 26.3963 123.615 27.0391 123.615 27.8026V28.3352H117.308V27.2486H122.337C122.337 26.7869 122.244 26.375 122.06 26.0128C121.879 25.6506 121.619 25.3647 121.282 25.1552C120.948 24.9457 120.554 24.8409 120.1 24.8409C119.599 24.8409 119.166 24.9652 118.8 25.2138C118.438 25.4588 118.159 25.7784 117.964 26.1726C117.768 26.5668 117.671 26.9893 117.671 27.4403V28.1648C117.671 28.7827 117.777 29.3065 117.99 29.7362C118.207 30.1623 118.507 30.4872 118.89 30.7109C119.274 30.9311 119.72 31.0412 120.227 31.0412C120.558 31.0412 120.856 30.995 121.122 30.9027C121.392 30.8068 121.625 30.6648 121.82 30.4766C122.015 30.2848 122.166 30.0469 122.273 29.7628L123.487 30.1037C123.36 30.5156 123.145 30.8778 122.843 31.1903C122.541 31.4993 122.168 31.7408 121.724 31.9148C121.28 32.0852 120.781 32.1705 120.227 32.1705Z" fill="black"/>
</svg>
